<svg width="65" height="60" viewBox="0 0 65 60" fill="none" xmlns="http://www.w3.org/2000/svg">
<path fill-rule="evenodd" clip-rule="evenodd" d="M25.4485 0.259837L27.4239 0.941905V6.95062C26.3525 6.13863 25.1137 5.68392 23.7745 5.68392C19.8907 5.68392 16.7435 9.61394 16.7435 14.4209C16.7435 19.2279 19.8907 23.1579 23.7745 23.1579H24.3771L27.6582 21.339C27.6582 21.339 27.6582 21.3066 27.6917 21.3066L29.734 22.7357H30.2697L32.7808 20.8518V20.6245L30.8389 20.8518V0H25.4485V0.259837ZM20.1585 14.4209C20.1585 9.84129 21.7656 6.10615 23.7745 6.10615C25.3815 6.10615 26.8882 7.56773 27.4239 9.74385V20.8518L24.0088 22.7357H23.7745C21.7991 22.7357 20.1585 19.0005 20.1585 14.4209Z" fill="#F4F4F4"/>
<path fill-rule="evenodd" clip-rule="evenodd" d="M4.75427 22.7681H17.5774L11.5509 10.1011L13.3253 9.45154V9.22418H5.85913V0.552152H11.4504C12.5218 0.552152 13.5597 0.974387 14.3298 1.72142C15.0998 2.46844 15.5351 3.47531 15.5351 4.51465V5.71639H15.7694L16.6065 0.0324791H0V0.259837L1.94188 0.974386V20.8843L4.75427 22.7681ZM12.0531 22.216H5.85913V9.77633H8.40367C9.84334 9.77633 11.1826 10.5883 11.7852 11.855C12.1089 12.5371 12.4808 13.3273 12.8528 14.1176C13.5969 15.6983 14.3409 17.2791 14.698 17.9937C14.832 18.2535 14.8989 18.5133 14.9659 18.8056C15.1333 19.6501 14.8989 20.5271 14.3298 21.1766C13.7606 21.8262 12.9236 22.216 12.0531 22.216Z" fill="#F4F4F4"/>
<path fill-rule="evenodd" clip-rule="evenodd" d="M46.4946 11.043L36.3164 16.7594C36.9191 20.2347 38.8944 22.7357 41.6733 22.7357C43.7826 22.7357 45.7245 21.9886 46.8963 20.2023L47.3316 20.4946C46.0928 22.4758 43.9165 23.1579 41.6733 23.1579C36.7182 23.1579 32.7005 19.2604 32.7005 14.4534C32.7005 9.64642 36.7182 5.74887 41.6733 5.74887C43.7491 5.74887 45.6241 6.43094 47.1307 7.53525V7.56773L46.4946 11.043ZM45.7245 10.8482C44.7536 7.69765 43.5483 6.13863 41.6733 6.13863C38.3253 6.13863 36.1155 9.80882 36.1155 14.4534C36.1155 15.038 36.149 15.6227 36.216 16.1748L45.7245 10.8482Z" fill="#F4F4F4"/>
<path d="M55.4245 5.71639L52.3778 7.40533V6.10615H47.0208V6.36599L48.9627 7.04806V21.0792L51.2729 22.7681H51.8421L54.3531 20.8843V20.6245L52.3778 20.8843V8.02244L55.7928 6.10615H56.0271C58.036 6.10615 59.6431 6.59334 59.6431 10.4584V21.0792L61.9532 22.7681H62.5224L65 20.8843V20.6245L63.0581 20.8843V10.4584C63.0581 5.87879 59.9109 5.71639 56.0271 5.71639H55.4245Z" fill="#F4F4F4"/>
<path d="M18.8968 25.1489V60H20.8395L25.7845 56.5985V25.9113L28.9163 24.7278L28.9191 56.5985H35.8039L35.804 24.6221L39.2155 25.9113V56.5985L44.1605 60H46.1032V25.1489H55.9342C57.818 25.1489 59.643 25.9113 60.9969 27.2602C62.3509 28.609 63.1162 30.4271 63.1162 32.3038V34.4737H63.5283L65 24.2105H35.8011V24.2282L29.1989 24.2105H0L1.47172 34.4737H1.8838V32.3038C1.8838 30.4271 2.64909 28.609 4.00307 27.2602C5.35704 25.9113 7.18197 25.1489 9.06577 25.1489H18.8968Z" fill="#F4F4F4"/>
</svg>
