<svg width="150" height="82" viewBox="0 0 150 82" fill="none" xmlns="http://www.w3.org/2000/svg">
<path d="M43.6081 82V2.14992H20.921C16.5738 2.14992 12.3624 3.89673 9.23785 6.98723C6.11328 10.0777 4.34722 14.2432 4.34722 18.543V23.5147H3.39627L0 0H67.382L82.618 0.0405262V0H150L146.604 23.5147H145.653V18.543C145.653 14.2432 143.887 10.0777 140.762 6.98723C137.638 3.89673 133.426 2.14992 129.079 2.14992H106.392V82H101.909L90.4974 74.2066V3.89673L82.6245 0.943032L82.6245 74.2066H66.7364L66.73 1.18519L59.5026 3.89673V74.2066L48.0912 82H43.6081Z" fill="#CF0F30"/>
</svg>
